# xmcd
#
# Track frame offsets:
#  150
#  10865
#  27797
#  40402
#  53187
#  69630
#  83812
#  99667
#  109520
#  124190
#  137190
#  162417
#
# Disc length: 2332 seconds
#
# Revision: 0
# Processed by: cddbd v1.5.1PL0 Copyright (c) Steve Scherf et al.
# Submitted via: Collectorz.com_Music_Collector 6.9
#
DISCID=9e091a0c
DTITLE=Ray Stevens - The Best Of Ray Stevens (The Millennium Collection)
DYEAR=1900
DGENRE=Country
TTITLE0=Jeremiah Peabody's Poly Unstaurated Quick Dissolving Fast Acting Pleasnt Tasting Green And Purple Pill's
TTITLE1=Ahab The Arab
TTITLE2=Harry The Hairy Ape
TTITLE3=Freddie Feelgood (And His Funky Little Five Piece Band)
TTITLE4=Mr Businessman
TTITLE5=Gitarzan
TTITLE6=Everything Is Beatiful
TTITLE7=Turn Your Radio On
TTITLE8=The Streak
TTITLE9=Misty
TTITLE10=Shriner's Convention
TTITLE11=Would Jesus Wear A Rolex
EXTD=
EXTT0=
EXTT1=
EXTT2=
EXTT3=
EXTT4=
EXTT5=
EXTT6=
EXTT7=
EXTT8=
EXTT9=
EXTT10=
EXTT11=
PLAYORDER=
